<?xml version="1.0" encoding="UTF-8" standalone="no"?>
<!DOCTYPE svg PUBLIC "-//W3C//DTD SVG 1.1//EN"
 "http://www.w3.org/Graphics/SVG/1.1/DTD/svg11.dtd">
<!-- Generated by graphviz version 2.38.0 (20140413.2041)
 -->
<!-- Title: hello_world Pages: 1 -->
<svg width="134pt" height="260pt"
 viewBox="0.00 0.00 134.00 260.00" xmlns="http://www.w3.org/2000/svg" xmlns:xlink="http://www.w3.org/1999/xlink">
<g id="graph0" class="graph" transform="scale(1 1) rotate(0) translate(4 256)">
<title>hello_world</title>
<polygon fill="white" stroke="none" points="-4,4 -4,-256 130,-256 130,4 -4,4"/>
<!-- a -->
<g id="node1" class="node"><title>a</title>
<ellipse fill="none" stroke="black" cx="27" cy="-234" rx="27" ry="18"/>
<text text-anchor="middle" x="27" y="-230.3" font-family="Times New Roman,serif" font-size="14.00">a</text>
</g>
<!-- b -->
<g id="node2" class="node"><title>b</title>
<ellipse fill="none" stroke="black" cx="27" cy="-162" rx="27" ry="18"/>
<text text-anchor="middle" x="27" y="-158.3" font-family="Times New Roman,serif" font-size="14.00">b</text>
</g>
<!-- a&#45;&gt;b -->
<g id="edge1" class="edge"><title>a&#45;&gt;b</title>
<path fill="none" stroke="black" d="M21.1601,-216.411C20.2975,-208.507 20.0481,-198.852 20.4119,-189.935"/>
<polygon fill="black" stroke="black" points="23.9033,-190.179 21.1206,-179.956 16.9209,-189.683 23.9033,-190.179"/>
</g>
<!-- d -->
<g id="node3" class="node"><title>d</title>
<ellipse fill="none" stroke="black" cx="99" cy="-162" rx="27" ry="18"/>
<text text-anchor="middle" x="99" y="-158.3" font-family="Times New Roman,serif" font-size="14.00">d</text>
</g>
<!-- a&#45;&gt;d -->
<g id="edge3" class="edge"><title>a&#45;&gt;d</title>
<path fill="none" stroke="black" d="M41.5703,-218.834C51.7499,-208.938 65.5239,-195.546 77.0306,-184.359"/>
<polygon fill="black" stroke="black" points="79.4741,-186.865 84.2043,-177.385 74.5945,-181.846 79.4741,-186.865"/>
</g>
<!-- b&#45;&gt;a -->
<g id="edge2" class="edge"><title>b&#45;&gt;a</title>
<path fill="none" stroke="black" d="M32.8794,-179.956C33.7139,-187.827 33.9485,-197.374 33.5831,-206.187"/>
<polygon fill="black" stroke="black" points="30.0742,-206.184 32.8399,-216.411 37.0558,-206.691 30.0742,-206.184"/>
</g>
<!-- c -->
<g id="node4" class="node"><title>c</title>
<ellipse fill="none" stroke="black" cx="99" cy="-90" rx="27" ry="18"/>
<text text-anchor="middle" x="99" y="-86.3" font-family="Times New Roman,serif" font-size="14.00">c</text>
</g>
<!-- d&#45;&gt;c -->
<g id="edge4" class="edge"><title>d&#45;&gt;c</title>
<path fill="none" stroke="black" d="M93.1601,-144.411C92.2975,-136.507 92.0481,-126.852 92.4119,-117.935"/>
<polygon fill="black" stroke="black" points="95.9033,-118.179 93.1206,-107.956 88.9209,-117.683 95.9033,-118.179"/>
</g>
<!-- c&#45;&gt;d -->
<g id="edge6" class="edge"><title>c&#45;&gt;d</title>
<path fill="none" stroke="black" d="M104.879,-107.956C105.714,-115.827 105.948,-125.374 105.583,-134.187"/>
<polygon fill="black" stroke="black" points="102.074,-134.184 104.84,-144.411 109.056,-134.691 102.074,-134.184"/>
</g>
<!-- e -->
<g id="node5" class="node"><title>e</title>
<ellipse fill="none" stroke="black" cx="99" cy="-18" rx="27" ry="18"/>
<text text-anchor="middle" x="99" y="-14.3" font-family="Times New Roman,serif" font-size="14.00">e</text>
</g>
<!-- c&#45;&gt;e -->
<g id="edge5" class="edge"><title>c&#45;&gt;e</title>
<path fill="none" stroke="black" d="M99,-71.6966C99,-63.9827 99,-54.7125 99,-46.1124"/>
<polygon fill="black" stroke="black" points="102.5,-46.1043 99,-36.1043 95.5001,-46.1044 102.5,-46.1043"/>
</g>
</g>
</svg>
